<?xml version="1.0" encoding="UTF-8" standalone="no"?>
<svg width="200" height="200" viewBox="0 0 200 200" xmlns="http://www.w3.org/2000/svg">
  <!-- Background -->
  <rect width="200" height="200" fill="#04294D" />
  
  <!-- Circuitry Pattern Background -->
  <g stroke="#00A0FF" stroke-width="0.6" stroke-opacity="0.3">
    <line x1="20" y1="20" x2="80" y2="20" />
    <line x1="120" y1="20" x2="180" y2="20" />
    <line x1="20" y1="50" x2="50" y2="50" />
    <line x1="90" y1="50" x2="110" y2="50" />
    <line x1="150" y1="50" x2="180" y2="50" />
    <line x1="20" y1="80" x2="40" y2="80" />
    <line x1="60" y1="80" x2="140" y2="80" />
    <line x1="160" y1="80" x2="180" y2="80" />
    <line x1="20" y1="110" x2="70" y2="110" />
    <line x1="110" y1="110" x2="180" y2="110" />
    <line x1="20" y1="140" x2="60" y2="140" />
    <line x1="80" y1="140" x2="120" y2="140" />
    <line x1="140" y1="140" x2="180" y2="140" />
    <line x1="20" y1="170" x2="40" y2="170" />
    <line x1="70" y1="170" x2="130" y2="170" />
    <line x1="150" y1="170" x2="180" y2="170" />
    
    <line x1="20" y1="20" x2="20" y2="60" />
    <line x1="20" y1="80" x2="20" y2="110" />
    <line x1="20" y1="140" x2="20" y2="180" />
    <line x1="50" y1="20" x2="50" y2="70" />
    <line x1="50" y1="90" x2="50" y2="130" />
    <line x1="50" y1="160" x2="50" y2="180" />
    <line x1="80" y1="20" x2="80" y2="40" />
    <line x1="80" y1="60" x2="80" y2="100" />
    <line x1="80" y1="120" x2="80" y2="180" />
    <line x1="110" y1="20" x2="110" y2="90" />
    <line x1="110" y1="120" x2="110" y2="150" />
    <line x1="110" y1="170" x2="110" y2="180" />
    <line x1="140" y1="20" x2="140" y2="50" />
    <line x1="140" y1="70" x2="140" y2="130" />
    <line x1="140" y1="150" x2="140" y2="180" />
    <line x1="170" y1="20" x2="170" y2="90" />
    <line x1="170" y1="110" x2="170" y2="180" />
  </g>
  
  <!-- Gear Outlines -->
  <g fill="none" stroke="#00F5FF" stroke-width="1.5" stroke-opacity="0.8">
    <path d="M85,85 L85,75 L90,70 L95,70 L100,75 L105,70 L110,70 L115,75 L115,85 L110,90 L115,95 L115,105 L110,110 L105,110 L100,105 L95,110 L90,110 L85,105 L85,95 L90,90 Z" />
    <circle cx="100" cy="90" r="12" />
  </g>
  
  <!-- CPU/Chip Icon -->
  <g>
    <rect x="70" y="60" width="60" height="60" fill="#031835" stroke="#00F5FF" stroke-width="1.5" />
    <line x1="70" y1="75" x2="130" y2="75" stroke="#00F5FF" stroke-width="1" />
    <line x1="70" y1="90" x2="130" y2="90" stroke="#00F5FF" stroke-width="1" />
    <line x1="70" y1="105" x2="130" y2="105" stroke="#00F5FF" stroke-width="1" />
    <line x1="85" y1="60" x2="85" y2="120" stroke="#00F5FF" stroke-width="1" />
    <line x1="100" y1="60" x2="100" y2="120" stroke="#00F5FF" stroke-width="1" />
    <line x1="115" y1="60" x2="115" y2="120" stroke="#00F5FF" stroke-width="1" />
  </g>
  
  <!-- Circuit Connection Points -->
  <g fill="#00F5FF">
    <circle cx="70" cy="60" r="2" />
    <circle cx="100" cy="60" r="2" />
    <circle cx="130" cy="60" r="2" />
    <circle cx="70" cy="90" r="2" />
    <circle cx="100" cy="90" r="2" />
    <circle cx="130" cy="90" r="2" />
    <circle cx="70" cy="120" r="2" />
    <circle cx="100" cy="120" r="2" />
    <circle cx="130" cy="120" r="2" />
  </g>
  
  <!-- Tool Icons -->
  <g fill="none" stroke="#00F5FF" stroke-width="1.2">
    <path d="M145,75 L155,65 L160,70 L150,80 L145,75" />
    <path d="M40,75 L50,65 L60,75 L50,85 L40,75" />
  </g>
  
  <!-- Pulsing Glow Effect -->
  <circle cx="100" cy="90" r="45" fill="none" stroke="#00F5FF" stroke-width="1" stroke-opacity="0.6">
    <animate attributeName="r" from="45" to="50" dur="3s" repeatCount="indefinite" />
    <animate attributeName="stroke-opacity" from="0.6" to="0.2" dur="3s" repeatCount="indefinite" />
  </circle>
  
  <!-- Text Label -->
  <text x="100" y="175" font-family="Arial, sans-serif" font-size="14" fill="#00F5FF" text-anchor="middle">ENGINEERING LEAD</text>
</svg>